<svg xmlns="http://www.w3.org/2000/svg" version="1.1" xmlns:xlink="http://www.w3.org/1999/xlink" xmlns:svgjs="http://svgjs.com/svgjs" width="32" height="32">
    <svg width="32" height="32" viewBox="0 0 32 32" fill="none" xmlns="http://www.w3.org/2000/svg">
        <path d="M7.33337 7.76325C7.33337 7.25946 7.4993 6.83961 7.83115 6.50378C8.18671 6.16796 8.60153 6 9.0756 6H10.8534C11.3274 6 11.7304 6.16796 12.0623 6.50378C12.4178 6.83961 12.5956 7.25946 12.5956 7.76325V9.5265C12.5956 10.0303 12.4178 10.4501 12.0623 10.786C11.7304 11.1218 11.3274 11.2897 10.8534 11.2897H9.0756C8.60153 11.2897 8.18671 11.1218 7.83115 10.786C7.4993 10.4501 7.33337 10.0303 7.33337 9.5265V7.76325ZM19.2445 7.76325C19.2445 7.25946 19.4104 6.83961 19.7423 6.50378C20.0978 6.16796 20.5245 6 21.0223 6H22.7645C23.2385 6 23.6416 6.16796 23.9734 6.50378C24.3289 6.83961 24.5067 7.25946 24.5067 7.76325V9.5265C24.5067 10.0303 24.3289 10.4501 23.9734 10.786C23.6416 11.1218 23.2385 11.2897 22.7645 11.2897H21.0223C20.5245 11.2897 20.0978 11.1218 19.7423 10.786C19.4104 10.4501 19.2445 10.0303 19.2445 9.5265V7.76325Z" fill="black"/>
        <path d="M26.4867 22.0498C26.4867 21.7099 26.3802 21.455 26.1673 21.285L24.8542 19.9738C24.665 19.7553 24.4284 19.646 24.1445 19.646L7.8555 19.646C7.5479 19.646 7.3114 19.7553 7.1458 19.9738L5.8327 21.285C5.6198 21.455 5.5133 21.7099 5.5133 22.0498V23.1789C5.5133 23.6888 5.3477 24.1259 5.0165 24.4901C4.6616 24.83 4.2357 25 3.7389 25C3.2421 25 2.828 24.83 2.4968 24.4901C2.1656 24.1259 2 23.6888 2 23.1789V20.8115C2 20.593 2.0473 20.3744 2.142 20.1559C2.2366 19.9131 2.3549 19.7067 2.4968 19.5367L5.4068 16.5137C5.5961 16.3195 5.809 16.1859 6.0456 16.1131C6.2586 16.0403 6.4715 16.0038 6.6844 16.0038L25.3156 16.0038C25.5285 16.0038 25.7533 16.0403 25.9899 16.1131C26.2028 16.1859 26.4039 16.3195 26.5932 16.5137L29.4677 19.5367C29.8226 19.901 30 20.3259 30 20.8115V23.1789C30 23.6888 29.8226 24.1259 29.4677 24.4901C29.1365 24.83 28.7224 25 28.2256 25C27.7288 25 27.3147 24.83 26.9835 24.4901C26.6523 24.1259 26.4867 23.6888 26.4867 23.1789V22.0498Z" fill="black"/>
    </svg>
    <style>
        @media (prefers-color-scheme: dark) { :root { filter: invert(100%); } }
    </style>
</svg>
